<svg xmlns="http://www.w3.org/2000/svg" width="1100" height="720" viewBox="0 0 1100 720">
<rect width="100%" height="100%" fill="white"/>
<rect x="0" y="0" width="1100" height="6" fill="#147c80" stroke="#147c80" stroke-width="1"/>
<text x="30" y="43" font-family="Arial,Helvetica,sans-serif" font-size="25" font-weight="700" fill="#183339" text-anchor="start">offer-bed-01 / 2 courses / assembled view</text>
<text x="30" y="69" font-family="Arial,Helvetica,sans-serif" font-size="14" font-weight="400" fill="#52666a" text-anchor="start">DRAFT_MARK_OUT_ONLY  |  Same timber section throughout  |  Schematic colour, not a finish sample</text>
<polygon points="450.28,252.826 246.952,370.217 246.952,331.087 450.28,213.696" fill="#ae7f50" stroke="#183339" stroke-width="1.25"/>
<polygon points="450.28,213.696 246.952,331.087 246.952,291.957 450.28,174.565" fill="#ae7f50" stroke="#183339" stroke-width="1.25"/>
<polygon points="433.336,164.783 450.28,174.565 246.952,291.957 230.008,282.174" fill="#e0bd8e" stroke="#183339" stroke-width="1.25"/>
<polygon points="450.28,252.826 823.048,468.043 823.048,428.913 450.28,213.696" fill="#c79a67" stroke="#183339" stroke-width="1.25"/>
<polygon points="450.28,213.696 823.048,428.913 823.048,389.783 450.28,174.565" fill="#c79a67" stroke="#183339" stroke-width="1.25"/>
<polygon points="450.28,155 856.936,389.783 839.992,399.565 433.336,164.783" fill="#e0bd8e" stroke="#183339" stroke-width="1.25"/>
<polygon points="856.936,468.043 839.992,477.826 839.992,438.696 856.936,428.913" fill="#ae7f50" stroke="#183339" stroke-width="1.25"/>
<polygon points="213.064,370.217 619.72,605 619.72,565.87 213.064,331.087" fill="#c79a67" stroke="#183339" stroke-width="1.25"/>
<polygon points="856.936,428.913 839.992,438.696 839.992,399.565 856.936,389.783" fill="#ae7f50" stroke="#183339" stroke-width="1.25"/>
<polygon points="213.064,331.087 619.72,565.87 619.72,526.739 213.064,291.957" fill="#c79a67" stroke="#183339" stroke-width="1.25"/>
<polygon points="230.008,282.174 636.664,516.957 619.72,526.739 213.064,291.957" fill="#e0bd8e" stroke="#183339" stroke-width="1.25"/>
<polygon points="839.992,477.826 636.664,595.217 636.664,556.087 839.992,438.696" fill="#ae7f50" stroke="#183339" stroke-width="1.25"/>
<polygon points="839.992,438.696 636.664,556.087 636.664,516.957 839.992,399.565" fill="#ae7f50" stroke="#183339" stroke-width="1.25"/>
<polygon points="823.048,389.783 839.992,399.565 636.664,516.957 619.72,507.174" fill="#e0bd8e" stroke="#183339" stroke-width="1.25"/>
<polygon points="636.664,595.217 619.72,605 619.72,565.87 636.664,556.087" fill="#ae7f50" stroke="#183339" stroke-width="1.25"/>
<polygon points="636.664,556.087 619.72,565.87 619.72,526.739 636.664,516.957" fill="#ae7f50" stroke="#183339" stroke-width="1.25"/>
<line x1="890.9355305372587" y1="468.04347826086956" x2="890.9355305372587" y2="389.78260869565213" stroke="#52666a" stroke-width="1"/>
<line x1="885.9355305372587" y1="468.04347826086956" x2="895.9355305372587" y2="468.04347826086956" stroke="#52666a" stroke-width="1"/>
<line x1="885.9355305372587" y1="389.78260869565213" x2="895.9355305372587" y2="389.78260869565213" stroke="#52666a" stroke-width="1"/>
<text x="878.9355305372587" y="428.9130434782609" font-family="Arial,Helvetica,sans-serif" font-size="15" font-weight="400" fill="#52666a" text-anchor="middle" transform="rotate(-90 878.9355305372587 428.9130434782609)">400 mm</text>
<text x="30" y="652" font-family="Arial,Helvetica,sans-serif" font-size="17" font-weight="700" fill="#183339" text-anchor="start">Outside: 2400 x 1400 x 400 mm   |   Clear opening: 2200 x 1200 mm</text>
<text x="30" y="680" font-family="Arial,Helvetica,sans-serif" font-size="15" font-weight="400" fill="#52666a" text-anchor="start">Geometric fill: 924 litres at 50 mm below the top. No settlement allowance.</text>
</svg>
